<svg xmlns="http://www.w3.org/2000/svg" xmlns:xlink="http://www.w3.org/1999/xlink" width="500" zoomAndPan="magnify" viewBox="0 0 375 374.999991" height="500" preserveAspectRatio="xMidYMid meet" version="1.0"><defs><g/><clipPath id="1c1b1299e6"><path d="M 66.613281 74.9375 L 302.113281 74.9375 L 302.113281 151 L 66.613281 151 Z M 66.613281 74.9375 " clip-rule="nonzero"/></clipPath><clipPath id="fdf7b2263f"><path d="M 66.613281 191 L 302.113281 191 L 302.113281 266.9375 L 66.613281 266.9375 Z M 66.613281 191 " clip-rule="nonzero"/></clipPath></defs><g clip-path="url(#1c1b1299e6)"><path fill="#0a4049" d="M 135.316406 145.925781 C 136.007812 141.589844 136.90625 137.359375 138.019531 133.234375 C 140.941406 122.414062 145.023438 113.230469 150.261719 105.675781 C 155.496094 98.125 161.824219 92.324219 169.242188 88.265625 C 176.660156 84.207031 184.910156 82.175781 193.988281 82.175781 C 200.707031 82.175781 206.992188 83.246094 212.839844 85.382812 C 218.6875 87.523438 224.273438 90.753906 229.597656 95.074219 C 234.921875 99.394531 239.960938 104.804688 244.71875 111.304688 C 249.472656 117.808594 253.902344 125.335938 258.007812 133.886719 L 266.125 133.886719 L 266.125 75.972656 L 255.390625 75.972656 C 250.851562 80.808594 245.132812 83.222656 238.238281 83.222656 C 235.53125 83.222656 233.152344 82.988281 231.105469 82.515625 C 229.050781 82.039062 225.101562 81.023438 219.253906 79.46875 C 213.40625 77.917969 208.367188 76.773438 204.136719 76.039062 C 199.902344 75.304688 195.34375 74.9375 190.453125 74.9375 C 177.449219 74.9375 165.164062 77.269531 153.601562 81.9375 C 142.035156 86.605469 131.859375 93.257812 123.074219 101.894531 C 114.289062 110.53125 107.40625 120.851562 102.421875 132.847656 C 100.664062 137.082031 99.214844 141.441406 98.078125 145.925781 L 66.691406 145.925781 L 66.691406 150.019531 L 302.109375 150.019531 L 302.109375 145.925781 Z M 236.464844 89.375 C 241.003906 89.375 245.320312 88.460938 249.421875 86.628906 L 250.207031 108.882812 C 247.328125 105.308594 244.40625 101.925781 241.4375 98.738281 C 238.46875 95.554688 234.761719 92.257812 230.308594 88.851562 C 232.230469 89.199219 234.277344 89.375 236.464844 89.375 Z M 107.617188 131.027344 C 110.28125 125.089844 113.535156 119.5 117.382812 114.261719 C 121.230469 109.019531 125.640625 104.304688 130.625 100.113281 C 139.261719 92.957031 150.347656 86.808594 163.875 81.660156 C 155.496094 86.984375 148.230469 92.222656 142.078125 97.367188 C 135.925781 102.515625 129.878906 109.324219 123.941406 117.789062 C 118.789062 125.214844 114.769531 133.726562 111.890625 143.335938 C 111.628906 144.199219 111.382812 145.0625 111.144531 145.925781 L 102.453125 145.925781 C 103.792969 140.671875 105.515625 135.707031 107.617188 131.027344 Z M 107.617188 131.027344 " fill-opacity="1" fill-rule="nonzero"/></g><g clip-path="url(#fdf7b2263f)"><path fill="#0a4049" d="M 66.691406 191.839844 L 66.691406 195.9375 L 97.808594 195.9375 C 98.859375 200.226562 100.203125 204.433594 101.832031 208.558594 C 106.425781 220.164062 113.003906 230.347656 121.570312 239.117188 C 130.136719 247.886719 140.3125 254.710938 152.09375 259.597656 C 163.875 264.480469 176.753906 266.925781 190.71875 266.925781 C 208.695312 266.925781 224.582031 263.320312 238.371094 256.121094 C 252.160156 248.914062 263.984375 238.195312 273.847656 223.960938 L 266.125 219.640625 C 260.191406 227.757812 253.773438 234.542969 246.878906 240 C 239.984375 245.457031 232.761719 249.511719 225.210938 252.175781 C 217.660156 254.839844 209.828125 256.167969 201.714844 256.167969 C 188.53125 256.167969 176.769531 252.4375 166.429688 244.976562 C 156.085938 237.515625 148.039062 227.105469 142.277344 213.75 C 139.859375 208.152344 137.953125 202.214844 136.550781 195.9375 L 302.109375 195.9375 L 302.109375 191.839844 Z M 152.015625 249.707031 C 161.570312 255.648438 172.15625 260.144531 183.765625 263.199219 C 166.046875 261.195312 150.773438 255.800781 137.941406 247.023438 C 125.113281 238.25 115.464844 227.199219 108.992188 213.882812 C 106.199219 208.125 104.007812 202.144531 102.421875 195.9375 L 110.9375 195.9375 C 111.4375 197.738281 111.996094 199.527344 112.609375 201.304688 C 115.96875 211.042969 120.988281 220.058594 127.664062 228.351562 C 134.339844 236.652344 142.457031 243.769531 152.015625 249.707031 Z M 152.015625 249.707031 " fill-opacity="1" fill-rule="nonzero"/></g><g fill="#0a4049" fill-opacity="1"><g transform="translate(79.97343, 182.925122)"><g><path d="M 7.25 -20.375 C 7.445312 -20.570312 7.726562 -20.707031 8.09375 -20.78125 C 8.457031 -20.851562 8.800781 -20.914062 9.125 -20.96875 C 9.851562 -20.988281 10.382812 -20.835938 10.71875 -20.515625 C 11.0625 -20.191406 11.296875 -19.769531 11.421875 -19.25 C 11.546875 -18.738281 11.613281 -18.179688 11.625 -17.578125 C 11.644531 -16.984375 11.691406 -16.445312 11.765625 -15.96875 C 12.710938 -15.789062 13.628906 -15.671875 14.515625 -15.609375 C 15.410156 -15.546875 16.320312 -15.617188 17.25 -15.828125 C 17.644531 -16.972656 17.789062 -18.097656 17.6875 -19.203125 C 17.59375 -20.304688 17.304688 -21.328125 16.828125 -22.265625 C 16.359375 -23.203125 15.722656 -24.035156 14.921875 -24.765625 C 14.117188 -25.492188 13.222656 -26.078125 12.234375 -26.515625 C 11.242188 -26.953125 10.179688 -27.207031 9.046875 -27.28125 C 7.921875 -27.351562 6.785156 -27.203125 5.640625 -26.828125 C 5.285156 -26.734375 4.945312 -26.613281 4.625 -26.46875 C 4.300781 -26.332031 4 -26.164062 3.71875 -25.96875 C 3.238281 -25.539062 2.828125 -25.050781 2.484375 -24.5 C 2.148438 -23.945312 1.875 -23.347656 1.65625 -22.703125 C 1.5 -22.328125 1.378906 -21.914062 1.296875 -21.46875 C 1.210938 -21.03125 1.191406 -20.597656 1.234375 -20.171875 C 1.210938 -18.148438 1.195312 -16.367188 1.1875 -14.828125 C 1.175781 -13.285156 1.175781 -11.90625 1.1875 -10.6875 C 1.195312 -9.476562 1.210938 -8.382812 1.234375 -7.40625 C 1.265625 -6.425781 1.304688 -5.484375 1.359375 -4.578125 C 1.453125 -3.523438 1.78125 -2.648438 2.34375 -1.953125 C 2.90625 -1.253906 3.597656 -0.707031 4.421875 -0.3125 C 5.253906 0.0703125 6.144531 0.316406 7.09375 0.421875 C 8.050781 0.535156 8.984375 0.53125 9.890625 0.40625 C 11.265625 0.382812 12.492188 0.046875 13.578125 -0.609375 C 14.671875 -1.273438 15.554688 -2.125 16.234375 -3.15625 C 16.910156 -4.1875 17.347656 -5.34375 17.546875 -6.625 C 17.742188 -7.914062 17.628906 -9.210938 17.203125 -10.515625 C 16.859375 -10.617188 16.46875 -10.679688 16.03125 -10.703125 C 15.59375 -10.734375 15.144531 -10.75 14.6875 -10.75 C 14.238281 -10.75 13.796875 -10.734375 13.359375 -10.703125 C 12.921875 -10.679688 12.523438 -10.695312 12.171875 -10.75 C 12.046875 -10.125 12 -9.488281 12.03125 -8.84375 C 12.070312 -8.207031 11.957031 -7.601562 11.6875 -7.03125 C 11.4375 -6.53125 11.066406 -6.171875 10.578125 -5.953125 C 10.085938 -5.742188 9.566406 -5.664062 9.015625 -5.71875 C 8.285156 -5.914062 7.765625 -6.359375 7.453125 -7.046875 C 7.140625 -7.734375 6.945312 -8.441406 6.875 -9.171875 C 6.800781 -10.046875 6.765625 -11.078125 6.765625 -12.265625 C 6.765625 -13.453125 6.773438 -14.597656 6.796875 -15.703125 C 6.828125 -16.804688 6.859375 -17.757812 6.890625 -18.5625 C 6.929688 -19.363281 6.976562 -19.800781 7.03125 -19.875 C 7.050781 -19.925781 7.078125 -20.007812 7.109375 -20.125 C 7.148438 -20.238281 7.195312 -20.320312 7.25 -20.375 Z M 7.25 -20.375 "/></g></g></g><g fill="#0a4049" fill-opacity="1"><g transform="translate(98.305757, 182.925122)"><g><path d="M 1.6875 -17.140625 C 1.613281 -16.859375 1.5 -16.484375 1.34375 -16.015625 C 1.195312 -15.554688 1.113281 -15.191406 1.09375 -14.921875 C 1.019531 -14.441406 0.96875 -13.984375 0.9375 -13.546875 C 0.914062 -13.109375 0.90625 -12.664062 0.90625 -12.21875 C 0.976562 -11.382812 0.992188 -10.46875 0.953125 -9.46875 C 0.921875 -8.46875 0.925781 -7.472656 0.96875 -6.484375 C 1.019531 -5.492188 1.171875 -4.546875 1.421875 -3.640625 C 1.671875 -2.742188 2.132812 -1.992188 2.8125 -1.390625 C 3.695312 -0.515625 4.773438 0.0351562 6.046875 0.265625 C 6.753906 0.265625 7.53125 0.296875 8.375 0.359375 C 9.226562 0.421875 10.054688 0.421875 10.859375 0.359375 C 11.660156 0.296875 12.40625 0.140625 13.09375 -0.109375 C 13.78125 -0.359375 14.335938 -0.785156 14.765625 -1.390625 C 15.015625 -1.640625 15.207031 -2.101562 15.34375 -2.78125 C 15.488281 -3.457031 15.601562 -4.21875 15.6875 -5.0625 C 15.78125 -5.914062 15.84375 -6.804688 15.875 -7.734375 C 15.914062 -8.660156 15.945312 -9.488281 15.96875 -10.21875 C 15.945312 -11.050781 15.921875 -11.859375 15.890625 -12.640625 C 15.867188 -13.429688 15.804688 -14.160156 15.703125 -14.828125 C 15.609375 -15.492188 15.457031 -16.078125 15.25 -16.578125 C 15.050781 -17.078125 14.78125 -17.4375 14.4375 -17.65625 C 13.90625 -18.15625 13.273438 -18.535156 12.546875 -18.796875 C 11.828125 -19.066406 11.066406 -19.226562 10.265625 -19.28125 C 9.734375 -19.332031 9.234375 -19.335938 8.765625 -19.296875 C 8.304688 -19.253906 7.828125 -19.257812 7.328125 -19.3125 C 6.722656 -19.3125 6.125 -19.273438 5.53125 -19.203125 C 4.945312 -19.128906 4.398438 -19 3.890625 -18.8125 C 3.378906 -18.625 2.925781 -18.390625 2.53125 -18.109375 C 2.144531 -17.835938 1.863281 -17.515625 1.6875 -17.140625 Z M 6.390625 -12.703125 C 6.710938 -13.097656 7.140625 -13.375 7.671875 -13.53125 C 8.640625 -13.75 9.425781 -13.65625 10.03125 -13.25 C 10.632812 -12.851562 11 -12.21875 11.125 -11.34375 C 11.269531 -10.625 11.3125 -9.851562 11.25 -9.03125 C 11.1875 -8.21875 11.109375 -7.410156 11.015625 -6.609375 C 10.859375 -5.984375 10.566406 -5.570312 10.140625 -5.375 C 9.816406 -5.195312 9.40625 -5.078125 8.90625 -5.015625 C 8.40625 -4.953125 7.921875 -4.976562 7.453125 -5.09375 C 6.992188 -5.207031 6.597656 -5.421875 6.265625 -5.734375 C 5.941406 -6.046875 5.796875 -6.488281 5.828125 -7.0625 C 5.878906 -7.9375 5.90625 -8.769531 5.90625 -9.5625 C 5.90625 -10.351562 5.953125 -11.148438 6.046875 -11.953125 C 6.117188 -12.347656 6.234375 -12.597656 6.390625 -12.703125 Z M 6.390625 -12.703125 "/></g></g></g><g fill="#0a4049" fill-opacity="1"><g transform="translate(115.135428, 182.925122)"><g><path d="M 6.5 -17.46875 C 6.5 -17.644531 6.492188 -17.769531 6.484375 -17.84375 C 6.472656 -17.925781 6.46875 -18 6.46875 -18.0625 C 6.46875 -18.125 6.46875 -18.203125 6.46875 -18.296875 C 6.46875 -18.398438 6.46875 -18.550781 6.46875 -18.75 C 6.46875 -18.800781 6.359375 -18.832031 6.140625 -18.84375 C 5.929688 -18.851562 5.679688 -18.84375 5.390625 -18.8125 C 5.097656 -18.789062 4.820312 -18.769531 4.5625 -18.75 C 4.300781 -18.726562 4.117188 -18.71875 4.015625 -18.71875 C 3.710938 -18.6875 3.460938 -18.664062 3.265625 -18.65625 C 3.066406 -18.644531 2.878906 -18.640625 2.703125 -18.640625 C 2.523438 -18.640625 2.335938 -18.644531 2.140625 -18.65625 C 1.941406 -18.664062 1.691406 -18.6875 1.390625 -18.71875 C 1.285156 -15.40625 1.265625 -12.207031 1.328125 -9.125 C 1.390625 -6.050781 1.421875 -2.972656 1.421875 0.109375 C 2.023438 0.0546875 2.546875 0.0390625 2.984375 0.0625 C 3.421875 0.09375 3.828125 0.113281 4.203125 0.125 C 4.578125 0.144531 4.941406 0.140625 5.296875 0.109375 C 5.648438 0.0859375 6.039062 0.015625 6.46875 -0.109375 L 6.46875 -0.265625 C 6.46875 -1.191406 6.457031 -2.0625 6.4375 -2.875 C 6.425781 -3.6875 6.421875 -4.488281 6.421875 -5.28125 C 6.421875 -6.070312 6.40625 -6.851562 6.375 -7.625 C 6.351562 -8.40625 6.332031 -9.234375 6.3125 -10.109375 C 6.289062 -10.804688 6.390625 -11.34375 6.609375 -11.71875 C 6.835938 -12.09375 7.15625 -12.367188 7.5625 -12.546875 C 7.976562 -12.722656 8.46875 -12.8125 9.03125 -12.8125 C 9.601562 -12.8125 10.222656 -12.773438 10.890625 -12.703125 C 10.921875 -12.703125 11.09375 -12.675781 11.40625 -12.625 C 11.71875 -12.570312 12.023438 -12.507812 12.328125 -12.4375 C 12.453125 -12.382812 12.582031 -12.335938 12.71875 -12.296875 C 12.851562 -12.265625 12.984375 -12.222656 13.109375 -12.171875 L 13.453125 -12.0625 C 13.429688 -12.4375 13.421875 -12.835938 13.421875 -13.265625 C 13.421875 -13.691406 13.421875 -14.160156 13.421875 -14.671875 C 13.421875 -15.179688 13.425781 -15.765625 13.4375 -16.421875 C 13.445312 -17.078125 13.453125 -17.828125 13.453125 -18.671875 C 13.453125 -18.703125 13.269531 -18.722656 12.90625 -18.734375 C 12.539062 -18.742188 12.09375 -18.734375 11.5625 -18.703125 C 11.039062 -18.679688 10.476562 -18.625 9.875 -18.53125 C 9.28125 -18.445312 8.742188 -18.332031 8.265625 -18.1875 C 7.910156 -18.0625 7.550781 -17.921875 7.1875 -17.765625 C 6.832031 -17.617188 6.601562 -17.519531 6.5 -17.46875 Z M 6.5 -17.46875 "/></g></g></g><g fill="#0a4049" fill-opacity="1"><g transform="translate(128.959802, 182.925122)"><g><path d="M 16.5 -18.71875 C 15.695312 -18.757812 14.988281 -18.789062 14.375 -18.8125 C 13.757812 -18.84375 13.238281 -18.875 12.8125 -18.90625 C 12.738281 -18.90625 12.597656 -18.90625 12.390625 -18.90625 C 12.191406 -18.90625 11.992188 -18.910156 11.796875 -18.921875 C 11.597656 -18.929688 11.414062 -18.929688 11.25 -18.921875 C 11.09375 -18.910156 11.015625 -18.890625 11.015625 -18.859375 C 11.015625 -18.554688 10.984375 -18.257812 10.921875 -17.96875 C 10.859375 -17.6875 10.835938 -17.347656 10.859375 -16.953125 C 10.679688 -17.378906 10.46875 -17.707031 10.21875 -17.9375 C 9.96875 -18.175781 9.679688 -18.351562 9.359375 -18.46875 C 9.035156 -18.582031 8.675781 -18.644531 8.28125 -18.65625 C 7.894531 -18.664062 7.476562 -18.671875 7.03125 -18.671875 C 6.15625 -18.648438 5.328125 -18.421875 4.546875 -17.984375 C 3.765625 -17.546875 3.09375 -16.941406 2.53125 -16.171875 C 1.96875 -15.410156 1.523438 -14.503906 1.203125 -13.453125 C 0.878906 -12.398438 0.71875 -11.25 0.71875 -10 C 0.71875 -9 0.820312 -7.90625 1.03125 -6.71875 C 1.25 -5.539062 1.582031 -4.453125 2.03125 -3.453125 C 2.476562 -2.453125 3.046875 -1.613281 3.734375 -0.9375 C 4.421875 -0.257812 5.253906 0.078125 6.234375 0.078125 C 7.109375 0.078125 8.003906 -0.132812 8.921875 -0.5625 C 9.835938 -0.988281 10.597656 -1.503906 11.203125 -2.109375 C 11.203125 -1.859375 11.175781 -1.644531 11.125 -1.46875 C 11.070312 -1.289062 11.046875 -1.066406 11.046875 -0.796875 C 11.046875 -0.585938 11.078125 -0.40625 11.140625 -0.25 C 11.203125 -0.101562 11.320312 -0.0078125 11.5 0.03125 C 11.769531 0.03125 12.035156 0.015625 12.296875 -0.015625 C 12.566406 -0.0546875 12.835938 -0.078125 13.109375 -0.078125 C 13.515625 -0.078125 13.921875 -0.0546875 14.328125 -0.015625 C 14.742188 0.015625 15.15625 0.03125 15.5625 0.03125 L 16.015625 0.03125 C 16.304688 -0.0078125 16.457031 -0.191406 16.46875 -0.515625 C 16.488281 -0.847656 16.5 -1.175781 16.5 -1.5 C 16.675781 -4.1875 16.710938 -6.835938 16.609375 -9.453125 C 16.503906 -12.066406 16.492188 -14.726562 16.578125 -17.4375 L 16.578125 -17.8125 C 16.578125 -17.957031 16.566406 -18.101562 16.546875 -18.25 C 16.535156 -18.40625 16.519531 -18.5625 16.5 -18.71875 Z M 5.5625 -11.234375 C 5.6875 -11.859375 6.039062 -12.414062 6.625 -12.90625 C 7.21875 -13.394531 8.03125 -13.640625 9.0625 -13.640625 C 9.582031 -13.640625 9.972656 -13.601562 10.234375 -13.53125 C 10.503906 -13.457031 10.691406 -13.28125 10.796875 -13 C 10.910156 -12.726562 10.972656 -12.332031 10.984375 -11.8125 C 11.003906 -11.300781 11.015625 -10.609375 11.015625 -9.734375 C 11.015625 -9.035156 11.003906 -8.398438 10.984375 -7.828125 C 10.972656 -7.265625 10.898438 -6.789062 10.765625 -6.40625 C 10.628906 -6.019531 10.40625 -5.71875 10.09375 -5.5 C 9.78125 -5.289062 9.3125 -5.1875 8.6875 -5.1875 C 7.632812 -5.1875 6.8125 -5.578125 6.21875 -6.359375 C 5.632812 -7.148438 5.34375 -8.113281 5.34375 -9.25 C 5.34375 -9.570312 5.351562 -9.898438 5.375 -10.234375 C 5.394531 -10.578125 5.457031 -10.910156 5.5625 -11.234375 Z M 5.5625 -11.234375 "/></g></g></g><g fill="#0a4049" fill-opacity="1"><g transform="translate(146.841325, 182.925122)"><g><path d="M 1.46875 -27.3125 C 1.238281 -25.039062 1.128906 -22.765625 1.140625 -20.484375 C 1.160156 -18.203125 1.207031 -15.921875 1.28125 -13.640625 C 1.351562 -11.359375 1.40625 -9.078125 1.4375 -6.796875 C 1.476562 -4.515625 1.410156 -2.25 1.234375 0 C 1.410156 -0.0507812 1.757812 -0.0625 2.28125 -0.03125 C 2.8125 -0.0078125 3.367188 0.00390625 3.953125 0.015625 C 4.546875 0.0234375 5.09375 0.0234375 5.59375 0.015625 C 6.09375 0.00390625 6.40625 -0.0703125 6.53125 -0.21875 C 6.488281 -1.226562 6.453125 -2.453125 6.421875 -3.890625 C 6.398438 -5.328125 6.390625 -6.875 6.390625 -8.53125 C 6.390625 -10.1875 6.394531 -11.898438 6.40625 -13.671875 C 6.414062 -15.453125 6.429688 -17.171875 6.453125 -18.828125 C 6.484375 -20.484375 6.507812 -22.035156 6.53125 -23.484375 C 6.5625 -24.941406 6.578125 -26.179688 6.578125 -27.203125 Z M 1.46875 -27.3125 "/></g></g></g><g fill="#0a4049" fill-opacity="1"><g transform="translate(154.579973, 182.925122)"><g><path d="M 5.9375 -18.90625 C 5.132812 -18.875 4.441406 -18.867188 3.859375 -18.890625 C 3.285156 -18.921875 2.835938 -18.953125 2.515625 -18.984375 C 2.390625 -18.984375 2.207031 -18.992188 1.96875 -19.015625 C 1.726562 -19.035156 1.5625 -19.035156 1.46875 -19.015625 L 1.46875 -18.984375 C 1.3125 -17.503906 1.234375 -15.976562 1.234375 -14.40625 C 1.234375 -12.84375 1.257812 -11.257812 1.3125 -9.65625 C 1.363281 -8.050781 1.394531 -6.4375 1.40625 -4.8125 C 1.414062 -3.1875 1.359375 -1.582031 1.234375 0 C 1.410156 -0.0507812 1.757812 -0.0625 2.28125 -0.03125 C 2.8125 -0.0078125 3.367188 0.00390625 3.953125 0.015625 C 4.546875 0.0234375 5.09375 0.0234375 5.59375 0.015625 C 6.09375 0.00390625 6.40625 -0.0703125 6.53125 -0.21875 C 6.363281 -3.25 6.320312 -6.34375 6.40625 -9.5 C 6.488281 -12.65625 6.546875 -15.75 6.578125 -18.78125 L 6.578125 -18.90625 Z M 1.3125 -27.09375 C 1.289062 -25.9375 1.3125 -24.960938 1.375 -24.171875 C 1.4375 -23.390625 1.46875 -22.632812 1.46875 -21.90625 C 1.9375 -21.9375 2.445312 -21.929688 3 -21.890625 C 3.550781 -21.847656 4.070312 -21.820312 4.5625 -21.8125 C 5.050781 -21.800781 5.476562 -21.820312 5.84375 -21.875 C 6.207031 -21.925781 6.4375 -22.023438 6.53125 -22.171875 C 6.53125 -22.546875 6.523438 -22.976562 6.515625 -23.46875 C 6.503906 -23.957031 6.492188 -24.429688 6.484375 -24.890625 C 6.472656 -25.359375 6.457031 -25.785156 6.4375 -26.171875 C 6.425781 -26.554688 6.421875 -26.828125 6.421875 -26.984375 Z M 1.3125 -27.09375 "/></g></g></g><g fill="#0a4049" fill-opacity="1"><g transform="translate(162.356185, 182.925122)"><g><path d="M 6.34375 -16.765625 C 6.320312 -17.109375 6.316406 -17.414062 6.328125 -17.6875 C 6.335938 -17.96875 6.320312 -18.320312 6.28125 -18.75 C 6.28125 -18.820312 6.175781 -18.863281 5.96875 -18.875 C 5.769531 -18.894531 5.546875 -18.890625 5.296875 -18.859375 C 5.046875 -18.835938 4.796875 -18.804688 4.546875 -18.765625 C 4.296875 -18.734375 4.117188 -18.71875 4.015625 -18.71875 C 3.710938 -18.6875 3.460938 -18.664062 3.265625 -18.65625 C 3.066406 -18.644531 2.878906 -18.640625 2.703125 -18.640625 C 2.523438 -18.640625 2.335938 -18.644531 2.140625 -18.65625 C 1.941406 -18.664062 1.691406 -18.6875 1.390625 -18.71875 C 1.285156 -15.40625 1.265625 -12.207031 1.328125 -9.125 C 1.390625 -6.050781 1.421875 -2.972656 1.421875 0.109375 C 2.023438 0.0546875 2.523438 0.0390625 2.921875 0.0625 C 3.328125 0.09375 3.691406 0.113281 4.015625 0.125 C 4.347656 0.144531 4.671875 0.140625 4.984375 0.109375 C 5.296875 0.0859375 5.664062 0.015625 6.09375 -0.109375 L 6.09375 -0.265625 C 6.1875 -1.085938 6.234375 -1.910156 6.234375 -2.734375 C 6.234375 -3.566406 6.210938 -4.398438 6.171875 -5.234375 C 6.140625 -6.078125 6.109375 -6.914062 6.078125 -7.75 C 6.054688 -8.59375 6.070312 -9.453125 6.125 -10.328125 C 6.175781 -11.003906 6.351562 -11.507812 6.65625 -11.84375 C 6.957031 -12.1875 7.296875 -12.414062 7.671875 -12.53125 C 8.046875 -12.644531 8.425781 -12.671875 8.8125 -12.609375 C 9.195312 -12.546875 9.488281 -12.460938 9.6875 -12.359375 C 9.71875 -12.335938 9.742188 -12.328125 9.765625 -12.328125 C 9.796875 -12.328125 9.820312 -12.3125 9.84375 -12.28125 C 10.039062 -12.132812 10.195312 -11.921875 10.3125 -11.640625 C 10.425781 -11.367188 10.515625 -11.054688 10.578125 -10.703125 C 10.640625 -10.359375 10.679688 -10.003906 10.703125 -9.640625 C 10.734375 -9.273438 10.757812 -8.941406 10.78125 -8.640625 C 10.832031 -7.960938 10.863281 -7.234375 10.875 -6.453125 C 10.882812 -5.679688 10.882812 -4.90625 10.875 -4.125 C 10.863281 -3.351562 10.859375 -2.601562 10.859375 -1.875 C 10.859375 -1.15625 10.882812 -0.503906 10.9375 0.078125 C 11.8125 0.078125 12.59375 0.0820312 13.28125 0.09375 C 13.96875 0.101562 14.75 0.046875 15.625 -0.078125 C 15.582031 -0.929688 15.570312 -1.921875 15.59375 -3.046875 C 15.613281 -4.171875 15.632812 -5.335938 15.65625 -6.546875 C 15.6875 -7.765625 15.707031 -8.96875 15.71875 -10.15625 C 15.738281 -11.351562 15.726562 -12.453125 15.6875 -13.453125 C 15.644531 -14.453125 15.554688 -15.304688 15.421875 -16.015625 C 15.285156 -16.734375 15.09375 -17.207031 14.84375 -17.4375 C 14.3125 -17.882812 13.71875 -18.195312 13.0625 -18.375 C 12.414062 -18.550781 11.75 -18.625 11.0625 -18.59375 C 10.375 -18.570312 9.703125 -18.445312 9.046875 -18.21875 C 8.398438 -18 7.816406 -17.703125 7.296875 -17.328125 C 7.171875 -17.222656 7.007812 -17.117188 6.8125 -17.015625 C 6.625 -16.921875 6.46875 -16.835938 6.34375 -16.765625 Z M 6.34375 -16.765625 "/></g></g></g><g fill="#0a4049" fill-opacity="1"><g transform="translate(179.260984, 182.925122)"><g><path d="M 5.859375 -9.4375 C 6.109375 -9.382812 6.507812 -9.34375 7.0625 -9.3125 C 7.613281 -9.289062 8.234375 -9.28125 8.921875 -9.28125 C 9.609375 -9.28125 10.328125 -9.289062 11.078125 -9.3125 C 11.835938 -9.34375 12.546875 -9.378906 13.203125 -9.421875 C 13.867188 -9.472656 14.445312 -9.523438 14.9375 -9.578125 C 15.425781 -9.628906 15.757812 -9.679688 15.9375 -9.734375 C 16.007812 -10.785156 16.007812 -11.820312 15.9375 -12.84375 C 15.863281 -13.875 15.644531 -14.816406 15.28125 -15.671875 C 14.914062 -16.523438 14.378906 -17.25 13.671875 -17.84375 C 12.972656 -18.445312 12.046875 -18.847656 10.890625 -19.046875 C 9.992188 -19.273438 9.066406 -19.375 8.109375 -19.34375 C 7.160156 -19.320312 6.257812 -19.179688 5.40625 -18.921875 C 4.5625 -18.660156 3.800781 -18.269531 3.125 -17.75 C 2.445312 -17.238281 1.941406 -16.617188 1.609375 -15.890625 C 1.316406 -15.066406 1.125 -14.222656 1.03125 -13.359375 C 0.945312 -12.492188 0.867188 -11.597656 0.796875 -10.671875 C 0.742188 -9.640625 0.765625 -8.609375 0.859375 -7.578125 C 0.960938 -6.554688 1.148438 -5.585938 1.421875 -4.671875 C 1.703125 -3.765625 2.066406 -2.925781 2.515625 -2.15625 C 2.960938 -1.394531 3.523438 -0.773438 4.203125 -0.296875 C 4.804688 0.046875 5.457031 0.269531 6.15625 0.375 C 6.863281 0.375 7.632812 0.398438 8.46875 0.453125 C 9.3125 0.503906 10.132812 0.503906 10.9375 0.453125 C 11.738281 0.398438 12.476562 0.25 13.15625 0 C 13.832031 -0.25 14.382812 -0.675781 14.8125 -1.28125 C 14.976562 -1.425781 15.117188 -1.691406 15.234375 -2.078125 C 15.347656 -2.472656 15.441406 -2.9375 15.515625 -3.46875 C 15.585938 -4.007812 15.648438 -4.59375 15.703125 -5.21875 C 15.753906 -5.84375 15.804688 -6.484375 15.859375 -7.140625 C 15.578125 -7.210938 15.222656 -7.253906 14.796875 -7.265625 C 14.378906 -7.285156 13.9375 -7.28125 13.46875 -7.25 C 13.007812 -7.226562 12.566406 -7.207031 12.140625 -7.1875 C 11.710938 -7.175781 11.375 -7.1875 11.125 -7.21875 C 11.175781 -6.1875 11.019531 -5.414062 10.65625 -4.90625 C 10.289062 -4.394531 9.84375 -4.085938 9.3125 -3.984375 C 8.789062 -3.878906 8.253906 -3.960938 7.703125 -4.234375 C 7.148438 -4.515625 6.722656 -4.945312 6.421875 -5.53125 C 6.148438 -5.976562 5.992188 -6.4375 5.953125 -6.90625 C 5.921875 -7.382812 5.890625 -8 5.859375 -8.75 Z M 10.40625 -15.25 C 10.851562 -15.03125 11.207031 -14.691406 11.46875 -14.234375 C 11.738281 -13.785156 11.875 -13.3125 11.875 -12.8125 C 11.875 -12.613281 11.875 -12.484375 11.875 -12.421875 C 11.875 -12.359375 11.804688 -12.316406 11.671875 -12.296875 C 11.535156 -12.285156 11.300781 -12.289062 10.96875 -12.3125 C 10.644531 -12.34375 10.15625 -12.359375 9.5 -12.359375 C 8.550781 -12.359375 7.832031 -12.351562 7.34375 -12.34375 C 6.851562 -12.332031 6.492188 -12.34375 6.265625 -12.375 C 6.046875 -12.414062 5.929688 -12.492188 5.921875 -12.609375 C 5.910156 -12.722656 5.925781 -12.914062 5.96875 -13.1875 C 6.019531 -13.507812 6.101562 -13.820312 6.21875 -14.125 C 6.332031 -14.425781 6.5 -14.6875 6.71875 -14.90625 C 6.945312 -15.132812 7.25 -15.3125 7.625 -15.4375 C 8 -15.5625 8.488281 -15.625 9.09375 -15.625 C 9.363281 -15.625 9.597656 -15.59375 9.796875 -15.53125 C 10.003906 -15.46875 10.207031 -15.375 10.40625 -15.25 Z M 10.40625 -15.25 "/></g></g></g><g fill="#0a4049" fill-opacity="1"><g transform="translate(195.940388, 182.925122)"><g/></g></g><g fill="#0a4049" fill-opacity="1"><g transform="translate(203.45364, 182.925122)"><g><path d="M 16.234375 -26.109375 C 13.648438 -26.390625 11 -26.523438 8.28125 -26.515625 C 5.5625 -26.503906 2.925781 -26.484375 0.375 -26.453125 C 0.375 -26.429688 0.378906 -26.421875 0.390625 -26.421875 C 0.398438 -26.421875 0.40625 -26.40625 0.40625 -26.375 C 0.363281 -25.78125 0.34375 -25.15625 0.34375 -24.5 C 0.34375 -23.851562 0.347656 -23.242188 0.359375 -22.671875 C 0.367188 -22.109375 0.390625 -21.625 0.421875 -21.21875 C 0.460938 -20.820312 0.507812 -20.578125 0.5625 -20.484375 C 0.71875 -20.429688 0.984375 -20.40625 1.359375 -20.40625 C 1.734375 -20.40625 2.144531 -20.398438 2.59375 -20.390625 C 3.039062 -20.378906 3.488281 -20.351562 3.9375 -20.3125 C 4.394531 -20.269531 4.773438 -20.175781 5.078125 -20.03125 L 5.109375 -19.984375 C 5.265625 -16.484375 5.359375 -13.492188 5.390625 -11.015625 C 5.429688 -8.535156 5.441406 -6.5 5.421875 -4.90625 C 5.410156 -3.3125 5.394531 -2.113281 5.375 -1.3125 C 5.351562 -0.507812 5.351562 -0.0625 5.375 0.03125 C 5.820312 -0.0390625 6.304688 -0.078125 6.828125 -0.078125 C 7.359375 -0.078125 7.894531 -0.078125 8.4375 -0.078125 C 8.976562 -0.078125 9.515625 -0.0820312 10.046875 -0.09375 C 10.585938 -0.101562 11.082031 -0.144531 11.53125 -0.21875 L 11.53125 -0.296875 C 11.488281 -3.023438 11.453125 -5.398438 11.421875 -7.421875 C 11.398438 -9.441406 11.375 -11.171875 11.34375 -12.609375 C 11.320312 -14.046875 11.300781 -15.222656 11.28125 -16.140625 C 11.269531 -17.054688 11.265625 -17.796875 11.265625 -18.359375 C 11.265625 -18.921875 11.269531 -19.332031 11.28125 -19.59375 C 11.300781 -19.851562 11.320312 -20.046875 11.34375 -20.171875 C 11.34375 -20.203125 11.347656 -20.222656 11.359375 -20.234375 C 11.378906 -20.242188 11.390625 -20.265625 11.390625 -20.296875 L 11.5 -20.296875 C 12.675781 -20.347656 13.613281 -20.382812 14.3125 -20.40625 C 15.019531 -20.425781 15.609375 -20.390625 16.078125 -20.296875 C 16.203125 -21.191406 16.269531 -22.175781 16.28125 -23.25 C 16.300781 -24.332031 16.285156 -25.285156 16.234375 -26.109375 Z M 16.234375 -26.109375 "/></g></g></g><g fill="#0a4049" fill-opacity="1"><g transform="translate(220.09548, 182.925122)"><g><path d="M 6.28125 -16.765625 C 6.28125 -16.859375 6.28125 -17.164062 6.28125 -17.6875 C 6.28125 -18.21875 6.28125 -18.847656 6.28125 -19.578125 C 6.28125 -20.304688 6.28125 -21.085938 6.28125 -21.921875 C 6.28125 -22.765625 6.28125 -23.554688 6.28125 -24.296875 C 6.28125 -25.035156 6.28125 -25.671875 6.28125 -26.203125 C 6.28125 -26.742188 6.265625 -27.078125 6.234375 -27.203125 C 6.234375 -27.273438 6.132812 -27.316406 5.9375 -27.328125 C 5.738281 -27.347656 5.515625 -27.34375 5.265625 -27.3125 C 5.015625 -27.289062 4.765625 -27.257812 4.515625 -27.21875 C 4.265625 -27.1875 4.085938 -27.171875 3.984375 -27.171875 C 3.679688 -27.140625 3.429688 -27.117188 3.234375 -27.109375 C 3.035156 -27.097656 2.847656 -27.09375 2.671875 -27.09375 C 2.492188 -27.09375 2.300781 -27.097656 2.09375 -27.109375 C 1.894531 -27.117188 1.648438 -27.140625 1.359375 -27.171875 C 1.328125 -26.066406 1.304688 -24.769531 1.296875 -23.28125 C 1.285156 -21.789062 1.28125 -20.207031 1.28125 -18.53125 C 1.28125 -16.851562 1.28125 -15.128906 1.28125 -13.359375 C 1.28125 -11.585938 1.285156 -9.875 1.296875 -8.21875 C 1.304688 -6.570312 1.316406 -5.023438 1.328125 -3.578125 C 1.347656 -2.140625 1.359375 -0.910156 1.359375 0.109375 C 1.953125 0.0546875 2.445312 0.0390625 2.84375 0.0625 C 3.25 0.09375 3.613281 0.113281 3.9375 0.125 C 4.269531 0.144531 4.59375 0.140625 4.90625 0.109375 C 5.21875 0.0859375 5.585938 0.015625 6.015625 -0.109375 L 6.015625 -0.265625 C 6.109375 -1.085938 6.15625 -1.910156 6.15625 -2.734375 C 6.15625 -3.566406 6.132812 -4.398438 6.09375 -5.234375 C 6.0625 -6.078125 6.03125 -6.914062 6 -7.75 C 5.976562 -8.59375 5.992188 -9.453125 6.046875 -10.328125 C 6.097656 -11.003906 6.273438 -11.507812 6.578125 -11.84375 C 6.878906 -12.1875 7.21875 -12.414062 7.59375 -12.53125 C 7.96875 -12.644531 8.347656 -12.671875 8.734375 -12.609375 C 9.117188 -12.546875 9.414062 -12.460938 9.625 -12.359375 C 9.644531 -12.335938 9.664062 -12.328125 9.6875 -12.328125 C 9.71875 -12.328125 9.742188 -12.3125 9.765625 -12.28125 C 9.972656 -12.132812 10.128906 -11.921875 10.234375 -11.640625 C 10.347656 -11.367188 10.4375 -11.054688 10.5 -10.703125 C 10.5625 -10.359375 10.601562 -10.003906 10.625 -9.640625 C 10.65625 -9.273438 10.679688 -8.941406 10.703125 -8.640625 C 10.753906 -7.960938 10.785156 -7.234375 10.796875 -6.453125 C 10.816406 -5.679688 10.816406 -4.90625 10.796875 -4.125 C 10.785156 -3.351562 10.78125 -2.601562 10.78125 -1.875 C 10.78125 -1.15625 10.804688 -0.503906 10.859375 0.078125 C 11.734375 0.078125 12.515625 0.0820312 13.203125 0.09375 C 13.890625 0.101562 14.675781 0.046875 15.5625 -0.078125 C 15.507812 -0.929688 15.492188 -1.921875 15.515625 -3.046875 C 15.546875 -4.171875 15.570312 -5.335938 15.59375 -6.546875 C 15.613281 -7.765625 15.628906 -8.96875 15.640625 -10.15625 C 15.660156 -11.351562 15.648438 -12.453125 15.609375 -13.453125 C 15.578125 -14.453125 15.488281 -15.304688 15.34375 -16.015625 C 15.207031 -16.734375 15.015625 -17.207031 14.765625 -17.4375 C 14.242188 -17.882812 13.65625 -18.195312 13 -18.375 C 12.351562 -18.550781 11.679688 -18.625 10.984375 -18.59375 C 10.296875 -18.570312 9.625 -18.445312 8.96875 -18.21875 C 8.320312 -18 7.738281 -17.703125 7.21875 -17.328125 C 7.09375 -17.222656 6.9375 -17.117188 6.75 -17.015625 C 6.5625 -16.921875 6.40625 -16.835938 6.28125 -16.765625 Z M 6.28125 -16.765625 "/></g></g></g><g fill="#0a4049" fill-opacity="1"><g transform="translate(236.925151, 182.925122)"><g><path d="M 16.5 -18.71875 C 15.695312 -18.757812 14.988281 -18.789062 14.375 -18.8125 C 13.757812 -18.84375 13.238281 -18.875 12.8125 -18.90625 C 12.738281 -18.90625 12.597656 -18.90625 12.390625 -18.90625 C 12.191406 -18.90625 11.992188 -18.910156 11.796875 -18.921875 C 11.597656 -18.929688 11.414062 -18.929688 11.25 -18.921875 C 11.09375 -18.910156 11.015625 -18.890625 11.015625 -18.859375 C 11.015625 -18.554688 10.984375 -18.257812 10.921875 -17.96875 C 10.859375 -17.6875 10.835938 -17.347656 10.859375 -16.953125 C 10.679688 -17.378906 10.46875 -17.707031 10.21875 -17.9375 C 9.96875 -18.175781 9.679688 -18.351562 9.359375 -18.46875 C 9.035156 -18.582031 8.675781 -18.644531 8.28125 -18.65625 C 7.894531 -18.664062 7.476562 -18.671875 7.03125 -18.671875 C 6.15625 -18.648438 5.328125 -18.421875 4.546875 -17.984375 C 3.765625 -17.546875 3.09375 -16.941406 2.53125 -16.171875 C 1.96875 -15.410156 1.523438 -14.503906 1.203125 -13.453125 C 0.878906 -12.398438 0.71875 -11.25 0.71875 -10 C 0.71875 -9 0.820312 -7.90625 1.03125 -6.71875 C 1.25 -5.539062 1.582031 -4.453125 2.03125 -3.453125 C 2.476562 -2.453125 3.046875 -1.613281 3.734375 -0.9375 C 4.421875 -0.257812 5.253906 0.078125 6.234375 0.078125 C 7.109375 0.078125 8.003906 -0.132812 8.921875 -0.5625 C 9.835938 -0.988281 10.597656 -1.503906 11.203125 -2.109375 C 11.203125 -1.859375 11.175781 -1.644531 11.125 -1.46875 C 11.070312 -1.289062 11.046875 -1.066406 11.046875 -0.796875 C 11.046875 -0.585938 11.078125 -0.40625 11.140625 -0.25 C 11.203125 -0.101562 11.320312 -0.0078125 11.5 0.03125 C 11.769531 0.03125 12.035156 0.015625 12.296875 -0.015625 C 12.566406 -0.0546875 12.835938 -0.078125 13.109375 -0.078125 C 13.515625 -0.078125 13.921875 -0.0546875 14.328125 -0.015625 C 14.742188 0.015625 15.15625 0.03125 15.5625 0.03125 L 16.015625 0.03125 C 16.304688 -0.0078125 16.457031 -0.191406 16.46875 -0.515625 C 16.488281 -0.847656 16.5 -1.175781 16.5 -1.5 C 16.675781 -4.1875 16.710938 -6.835938 16.609375 -9.453125 C 16.503906 -12.066406 16.492188 -14.726562 16.578125 -17.4375 L 16.578125 -17.8125 C 16.578125 -17.957031 16.566406 -18.101562 16.546875 -18.25 C 16.535156 -18.40625 16.519531 -18.5625 16.5 -18.71875 Z M 5.5625 -11.234375 C 5.6875 -11.859375 6.039062 -12.414062 6.625 -12.90625 C 7.21875 -13.394531 8.03125 -13.640625 9.0625 -13.640625 C 9.582031 -13.640625 9.972656 -13.601562 10.234375 -13.53125 C 10.503906 -13.457031 10.691406 -13.28125 10.796875 -13 C 10.910156 -12.726562 10.972656 -12.332031 10.984375 -11.8125 C 11.003906 -11.300781 11.015625 -10.609375 11.015625 -9.734375 C 11.015625 -9.035156 11.003906 -8.398438 10.984375 -7.828125 C 10.972656 -7.265625 10.898438 -6.789062 10.765625 -6.40625 C 10.628906 -6.019531 10.40625 -5.71875 10.09375 -5.5 C 9.78125 -5.289062 9.3125 -5.1875 8.6875 -5.1875 C 7.632812 -5.1875 6.8125 -5.578125 6.21875 -6.359375 C 5.632812 -7.148438 5.34375 -8.113281 5.34375 -9.25 C 5.34375 -9.570312 5.351562 -9.898438 5.375 -10.234375 C 5.394531 -10.578125 5.457031 -10.910156 5.5625 -11.234375 Z M 5.5625 -11.234375 "/></g></g></g><g fill="#0a4049" fill-opacity="1"><g transform="translate(254.806674, 182.925122)"><g><path d="M 1.6875 -17.140625 C 1.613281 -16.859375 1.5 -16.484375 1.34375 -16.015625 C 1.195312 -15.554688 1.113281 -15.191406 1.09375 -14.921875 C 1.019531 -14.441406 0.96875 -13.984375 0.9375 -13.546875 C 0.914062 -13.109375 0.90625 -12.664062 0.90625 -12.21875 C 0.976562 -11.382812 0.992188 -10.46875 0.953125 -9.46875 C 0.921875 -8.46875 0.925781 -7.472656 0.96875 -6.484375 C 1.019531 -5.492188 1.171875 -4.546875 1.421875 -3.640625 C 1.671875 -2.742188 2.132812 -1.992188 2.8125 -1.390625 C 3.695312 -0.515625 4.773438 0.0351562 6.046875 0.265625 C 6.753906 0.265625 7.53125 0.296875 8.375 0.359375 C 9.226562 0.421875 10.054688 0.421875 10.859375 0.359375 C 11.660156 0.296875 12.40625 0.140625 13.09375 -0.109375 C 13.78125 -0.359375 14.335938 -0.785156 14.765625 -1.390625 C 15.015625 -1.640625 15.207031 -2.101562 15.34375 -2.78125 C 15.488281 -3.457031 15.601562 -4.21875 15.6875 -5.0625 C 15.78125 -5.914062 15.84375 -6.804688 15.875 -7.734375 C 15.914062 -8.660156 15.945312 -9.488281 15.96875 -10.21875 C 15.945312 -11.050781 15.921875 -11.859375 15.890625 -12.640625 C 15.867188 -13.429688 15.804688 -14.160156 15.703125 -14.828125 C 15.609375 -15.492188 15.457031 -16.078125 15.25 -16.578125 C 15.050781 -17.078125 14.78125 -17.4375 14.4375 -17.65625 C 13.90625 -18.15625 13.273438 -18.535156 12.546875 -18.796875 C 11.828125 -19.066406 11.066406 -19.226562 10.265625 -19.28125 C 9.734375 -19.332031 9.234375 -19.335938 8.765625 -19.296875 C 8.304688 -19.253906 7.828125 -19.257812 7.328125 -19.3125 C 6.722656 -19.3125 6.125 -19.273438 5.53125 -19.203125 C 4.945312 -19.128906 4.398438 -19 3.890625 -18.8125 C 3.378906 -18.625 2.925781 -18.390625 2.53125 -18.109375 C 2.144531 -17.835938 1.863281 -17.515625 1.6875 -17.140625 Z M 6.390625 -12.703125 C 6.710938 -13.097656 7.140625 -13.375 7.671875 -13.53125 C 8.640625 -13.75 9.425781 -13.65625 10.03125 -13.25 C 10.632812 -12.851562 11 -12.21875 11.125 -11.34375 C 11.269531 -10.625 11.3125 -9.851562 11.25 -9.03125 C 11.1875 -8.21875 11.109375 -7.410156 11.015625 -6.609375 C 10.859375 -5.984375 10.566406 -5.570312 10.140625 -5.375 C 9.816406 -5.195312 9.40625 -5.078125 8.90625 -5.015625 C 8.40625 -4.953125 7.921875 -4.976562 7.453125 -5.09375 C 6.992188 -5.207031 6.597656 -5.421875 6.265625 -5.734375 C 5.941406 -6.046875 5.796875 -6.488281 5.828125 -7.0625 C 5.878906 -7.9375 5.90625 -8.769531 5.90625 -9.5625 C 5.90625 -10.351562 5.953125 -11.148438 6.046875 -11.953125 C 6.117188 -12.347656 6.234375 -12.597656 6.390625 -12.703125 Z M 6.390625 -12.703125 "/></g></g></g><g fill="#0a4049" fill-opacity="1"><g transform="translate(271.636345, 182.925122)"><g><path d="M 6.34375 -16.765625 C 6.320312 -17.109375 6.316406 -17.414062 6.328125 -17.6875 C 6.335938 -17.96875 6.320312 -18.320312 6.28125 -18.75 C 6.28125 -18.820312 6.175781 -18.863281 5.96875 -18.875 C 5.769531 -18.894531 5.546875 -18.890625 5.296875 -18.859375 C 5.046875 -18.835938 4.796875 -18.804688 4.546875 -18.765625 C 4.296875 -18.734375 4.117188 -18.71875 4.015625 -18.71875 C 3.710938 -18.6875 3.460938 -18.664062 3.265625 -18.65625 C 3.066406 -18.644531 2.878906 -18.640625 2.703125 -18.640625 C 2.523438 -18.640625 2.335938 -18.644531 2.140625 -18.65625 C 1.941406 -18.664062 1.691406 -18.6875 1.390625 -18.71875 C 1.285156 -15.40625 1.265625 -12.207031 1.328125 -9.125 C 1.390625 -6.050781 1.421875 -2.972656 1.421875 0.109375 C 2.023438 0.0546875 2.523438 0.0390625 2.921875 0.0625 C 3.328125 0.09375 3.691406 0.113281 4.015625 0.125 C 4.347656 0.144531 4.671875 0.140625 4.984375 0.109375 C 5.296875 0.0859375 5.664062 0.015625 6.09375 -0.109375 L 6.09375 -0.265625 C 6.1875 -1.085938 6.234375 -1.910156 6.234375 -2.734375 C 6.234375 -3.566406 6.210938 -4.398438 6.171875 -5.234375 C 6.140625 -6.078125 6.109375 -6.914062 6.078125 -7.75 C 6.054688 -8.59375 6.070312 -9.453125 6.125 -10.328125 C 6.175781 -11.003906 6.351562 -11.507812 6.65625 -11.84375 C 6.957031 -12.1875 7.296875 -12.414062 7.671875 -12.53125 C 8.046875 -12.644531 8.425781 -12.671875 8.8125 -12.609375 C 9.195312 -12.546875 9.488281 -12.460938 9.6875 -12.359375 C 9.71875 -12.335938 9.742188 -12.328125 9.765625 -12.328125 C 9.796875 -12.328125 9.820312 -12.3125 9.84375 -12.28125 C 10.039062 -12.132812 10.195312 -11.921875 10.3125 -11.640625 C 10.425781 -11.367188 10.515625 -11.054688 10.578125 -10.703125 C 10.640625 -10.359375 10.679688 -10.003906 10.703125 -9.640625 C 10.734375 -9.273438 10.757812 -8.941406 10.78125 -8.640625 C 10.832031 -7.960938 10.863281 -7.234375 10.875 -6.453125 C 10.882812 -5.679688 10.882812 -4.90625 10.875 -4.125 C 10.863281 -3.351562 10.859375 -2.601562 10.859375 -1.875 C 10.859375 -1.15625 10.882812 -0.503906 10.9375 0.078125 C 11.8125 0.078125 12.59375 0.0820312 13.28125 0.09375 C 13.96875 0.101562 14.75 0.046875 15.625 -0.078125 C 15.582031 -0.929688 15.570312 -1.921875 15.59375 -3.046875 C 15.613281 -4.171875 15.632812 -5.335938 15.65625 -6.546875 C 15.6875 -7.765625 15.707031 -8.96875 15.71875 -10.15625 C 15.738281 -11.351562 15.726562 -12.453125 15.6875 -13.453125 C 15.644531 -14.453125 15.554688 -15.304688 15.421875 -16.015625 C 15.285156 -16.734375 15.09375 -17.207031 14.84375 -17.4375 C 14.3125 -17.882812 13.71875 -18.195312 13.0625 -18.375 C 12.414062 -18.550781 11.75 -18.625 11.0625 -18.59375 C 10.375 -18.570312 9.703125 -18.445312 9.046875 -18.21875 C 8.398438 -18 7.816406 -17.703125 7.296875 -17.328125 C 7.171875 -17.222656 7.007812 -17.117188 6.8125 -17.015625 C 6.625 -16.921875 6.46875 -16.835938 6.34375 -16.765625 Z M 6.34375 -16.765625 "/></g></g></g></svg>